<svg xmlns="http://www.w3.org/2000/svg" xmlns:xlink="http://www.w3.org/1999/xlink" width="500" zoomAndPan="magnify" viewBox="0 0 375 374.999991" height="500" preserveAspectRatio="xMidYMid meet" version="1.0"><defs><clipPath id="06902e2fa0"><path d="M 134 42 L 184 42 L 184 115 L 134 115 Z M 134 42 " clip-rule="nonzero"/></clipPath><clipPath id="c831dd5b76"><path d="M 222.5625 -4.703125 L 397.828125 206.945312 L 273.109375 310.222656 L 97.84375 98.578125 Z M 222.5625 -4.703125 " clip-rule="nonzero"/></clipPath><clipPath id="572561afee"><path d="M 222.5625 -4.703125 L 397.828125 206.945312 L 273.109375 310.222656 L 97.84375 98.578125 Z M 222.5625 -4.703125 " clip-rule="nonzero"/></clipPath><clipPath id="f2d8046661"><path d="M 222.5625 -4.703125 L 397.828125 206.945312 L 273.109375 310.222656 L 97.84375 98.578125 Z M 222.5625 -4.703125 " clip-rule="nonzero"/></clipPath><clipPath id="c3e135c1aa"><path d="M 206 62 L 285 62 L 285 136 L 206 136 Z M 206 62 " clip-rule="nonzero"/></clipPath><clipPath id="bc4c4618d9"><path d="M 222.5625 -4.703125 L 397.828125 206.945312 L 273.109375 310.222656 L 97.84375 98.578125 Z M 222.5625 -4.703125 " clip-rule="nonzero"/></clipPath><clipPath id="d6fec19f5f"><path d="M 222.5625 -4.703125 L 397.828125 206.945312 L 273.109375 310.222656 L 97.84375 98.578125 Z M 222.5625 -4.703125 " clip-rule="nonzero"/></clipPath><clipPath id="99b544579b"><path d="M 222.5625 -4.703125 L 397.828125 206.945312 L 273.109375 310.222656 L 97.84375 98.578125 Z M 222.5625 -4.703125 " clip-rule="nonzero"/></clipPath><clipPath id="b9861f64d9"><path d="M 225 140 L 315 140 L 315 199 L 225 199 Z M 225 140 " clip-rule="nonzero"/></clipPath><clipPath id="4cdde79874"><path d="M 222.5625 -4.703125 L 397.828125 206.945312 L 273.109375 310.222656 L 97.84375 98.578125 Z M 222.5625 -4.703125 " clip-rule="nonzero"/></clipPath><clipPath id="278510ff6f"><path d="M 222.5625 -4.703125 L 397.828125 206.945312 L 273.109375 310.222656 L 97.84375 98.578125 Z M 222.5625 -4.703125 " clip-rule="nonzero"/></clipPath><clipPath id="3de1165b77"><path d="M 222.5625 -4.703125 L 397.828125 206.945312 L 273.109375 310.222656 L 97.84375 98.578125 Z M 222.5625 -4.703125 " clip-rule="nonzero"/></clipPath><clipPath id="533864eb00"><path d="M 259 233 L 330 233 L 330 293 L 259 293 Z M 259 233 " clip-rule="nonzero"/></clipPath><clipPath id="1ca06831f6"><path d="M 222.5625 -4.703125 L 397.828125 206.945312 L 273.109375 310.222656 L 97.84375 98.578125 Z M 222.5625 -4.703125 " clip-rule="nonzero"/></clipPath><clipPath id="d251434cf4"><path d="M 222.5625 -4.703125 L 397.828125 206.945312 L 273.109375 310.222656 L 97.84375 98.578125 Z M 222.5625 -4.703125 " clip-rule="nonzero"/></clipPath><clipPath id="768af914b1"><path d="M 222.5625 -4.703125 L 397.828125 206.945312 L 273.109375 310.222656 L 97.84375 98.578125 Z M 222.5625 -4.703125 " clip-rule="nonzero"/></clipPath><clipPath id="b2df1ede92"><path d="M 113 296 L 132 296 L 132 316 L 113 316 Z M 113 296 " clip-rule="nonzero"/></clipPath><clipPath id="c95a49e96d"><path d="M 110.078125 302.492188 L 125.992188 293.253906 L 135.226562 309.171875 L 119.3125 318.40625 Z M 110.078125 302.492188 " clip-rule="nonzero"/></clipPath><clipPath id="53ef551e43"><path d="M 110.078125 302.492188 L 125.992188 293.253906 L 135.226562 309.171875 L 119.3125 318.40625 Z M 110.078125 302.492188 " clip-rule="nonzero"/></clipPath><clipPath id="e1d19d1d47"><path d="M 167 315 L 186 315 L 186 334 L 167 334 Z M 167 315 " clip-rule="nonzero"/></clipPath><clipPath id="f2c9229e46"><path d="M 163.878906 321.058594 L 179.796875 311.820312 L 189.03125 327.734375 L 173.117188 336.972656 Z M 163.878906 321.058594 " clip-rule="nonzero"/></clipPath><clipPath id="594eed0389"><path d="M 163.878906 321.058594 L 179.796875 311.820312 L 189.03125 327.734375 L 173.117188 336.972656 Z M 163.878906 321.058594 " clip-rule="nonzero"/></clipPath><clipPath id="cc99490ad3"><path d="M 222 305 L 241 305 L 241 324 L 222 324 Z M 222 305 " clip-rule="nonzero"/></clipPath><clipPath id="6a7ec5f34f"><path d="M 218.828125 311.03125 L 234.742188 301.792969 L 243.980469 317.710938 L 228.0625 326.945312 Z M 218.828125 311.03125 " clip-rule="nonzero"/></clipPath><clipPath id="6fd8757ae1"><path d="M 218.828125 311.03125 L 234.742188 301.792969 L 243.980469 317.710938 L 228.0625 326.945312 Z M 218.828125 311.03125 " clip-rule="nonzero"/></clipPath><clipPath id="66af467c83"><path d="M 41 202 L 126 202 L 126 266 L 41 266 Z M 41 202 " clip-rule="nonzero"/></clipPath><clipPath id="388e0ab81a"><path d="M 37.496094 234.242188 L 79.527344 121.605469 L 166.878906 154.203125 L 124.847656 266.835938 Z M 37.496094 234.242188 " clip-rule="nonzero"/></clipPath><clipPath id="351de4b6cd"><path d="M 37.496094 234.242188 L 79.527344 121.605469 L 166.878906 154.203125 L 124.847656 266.835938 Z M 37.496094 234.242188 " clip-rule="nonzero"/></clipPath><clipPath id="c60f5513ab"><path d="M 62 133 L 133 133 L 133 223 L 62 223 Z M 62 133 " clip-rule="nonzero"/></clipPath><clipPath id="930ae08d33"><path d="M 37.496094 234.242188 L 79.527344 121.605469 L 166.878906 154.203125 L 124.847656 266.835938 Z M 37.496094 234.242188 " clip-rule="nonzero"/></clipPath><clipPath id="c940048ff3"><path d="M 37.496094 234.242188 L 79.527344 121.605469 L 166.878906 154.203125 L 124.847656 266.835938 Z M 37.496094 234.242188 " clip-rule="nonzero"/></clipPath></defs><g clip-path="url(#06902e2fa0)"><g clip-path="url(#c831dd5b76)"><g clip-path="url(#572561afee)"><g clip-path="url(#f2d8046661)"><path fill="#f39200" d="M 172.324219 105.726562 C 168.324219 103.386719 163.398438 102.003906 158.703125 100.636719 C 162.675781 92.542969 166.648438 84.449219 170.621094 76.351562 C 172.699219 72.125 174.753906 67.886719 176.808594 63.644531 C 179.046875 59.023438 181.765625 54.378906 183.460938 49.53125 C 185.023438 45.054688 179.359375 40.511719 175.589844 43.988281 C 173.925781 45.519531 168.988281 45.765625 166.691406 46.449219 C 163.457031 47.410156 160.328125 48.503906 157.363281 50.125 C 154.382812 51.757812 155.453125 57.386719 159.207031 56.269531 C 162.09375 55.410156 164.945312 54.398438 167.863281 53.644531 C 168.6875 53.433594 169.515625 53.242188 170.34375 53.058594 C 169.546875 54.738281 168.769531 56.421875 167.953125 58.0625 C 165.632812 62.726562 163.308594 67.390625 161.011719 72.070312 C 156.882812 80.484375 152.75 88.898438 148.621094 97.3125 C 144.316406 95.847656 139.613281 94.628906 135.75 95.910156 C 133.667969 96.601562 133.683594 99.164062 134.644531 100.636719 C 136.332031 103.226562 139.546875 104.355469 142.296875 105.570312 C 145.660156 107.058594 149.105469 108.324219 152.558594 109.589844 C 155.773438 110.769531 159 111.925781 162.230469 113.070312 C 165.371094 114.183594 168.351562 115.65625 171.539062 113.929688 C 174.445312 112.359375 175.683594 107.6875 172.324219 105.726562 Z M 172.324219 105.726562 " fill-opacity="1" fill-rule="nonzero"/></g></g></g></g><g clip-path="url(#c3e135c1aa)"><g clip-path="url(#bc4c4618d9)"><g clip-path="url(#d6fec19f5f)"><g clip-path="url(#99b544579b)"><path fill="#009fe3" d="M 238.335938 127.339844 C 236.4375 126.734375 233.988281 124.347656 232.9375 122.464844 C 231.222656 119.398438 230.066406 116.042969 228.386719 112.953125 C 227.523438 111.375 226.5625 109.835938 225.488281 108.394531 C 227.3125 108.273438 229.140625 108.167969 230.972656 108.027344 C 236.976562 107.5625 242.871094 106.46875 248.652344 104.773438 C 259.773438 101.515625 272.910156 96.054688 280.59375 87.003906 C 284.078125 82.898438 285.71875 77.261719 283.753906 72.082031 C 281.714844 66.707031 276.664062 64.414062 271.328125 63.464844 C 266.128906 62.539062 259.882812 62.867188 255.070312 65.265625 C 252.554688 66.523438 249.824219 70.730469 253.8125 72.152344 C 255.203125 72.648438 256.324219 71.628906 256.449219 70.433594 C 258.085938 69.746094 265.5 70.671875 266.898438 70.921875 C 269.527344 71.390625 274.550781 72.339844 274.6875 75.726562 C 274.824219 79.261719 271.183594 81.972656 268.65625 83.78125 C 265.386719 86.121094 261.824219 88.089844 258.210938 89.839844 C 251.074219 93.304688 243.511719 95.679688 235.671875 96.867188 C 227.546875 98.101562 219.203125 97.523438 211.242188 99.792969 C 206.796875 101.058594 204.523438 108.515625 210.269531 109.980469 C 218.609375 112.109375 220.347656 121.925781 224.175781 128.425781 C 226.078125 131.65625 229.125 135.222656 233.226562 135.277344 C 236.683594 135.328125 239.257812 133.03125 239.835938 129.714844 C 240.003906 128.753906 239.25 127.628906 238.335938 127.339844 Z M 238.335938 127.339844 " fill-opacity="1" fill-rule="nonzero"/></g></g></g></g><g clip-path="url(#b9861f64d9)"><g clip-path="url(#4cdde79874)"><g clip-path="url(#278510ff6f)"><g clip-path="url(#3de1165b77)"><path fill="#e30613" d="M 290.53125 183.5 C 290.917969 176.710938 287.53125 171.90625 283.476562 167.414062 C 287.429688 167.539062 291.394531 167.449219 295.355469 167.140625 C 301.882812 166.628906 311.867188 165.960938 313.851562 158.144531 C 315.558594 151.421875 307.453125 143.796875 301.828125 141.460938 C 299.578125 140.527344 296.164062 140.535156 295.140625 143.324219 C 294.382812 145.386719 295.824219 147.628906 297.992188 147.746094 C 298.097656 147.84375 298.214844 147.957031 298.355469 148.113281 C 299.0625 148.890625 300.03125 149.441406 300.808594 150.152344 C 301.734375 151.003906 304.542969 153.417969 304.929688 154.921875 C 304.914062 154.9375 304.902344 154.945312 304.882812 154.960938 C 304.429688 155.328125 303.542969 155.523438 302.972656 155.679688 C 301.066406 156.195312 298.929688 156.324219 296.980469 156.535156 C 288.390625 157.46875 279.773438 157.070312 271.265625 155.683594 C 266.355469 154.886719 264.335938 160.863281 266.699219 164.289062 C 270.492188 169.785156 278.210938 174.121094 279.773438 180.902344 C 281.511719 188.449219 270.539062 188.402344 265.714844 188.042969 C 258.792969 187.527344 252.046875 185.695312 245.804688 182.671875 C 243.117188 181.367188 240.425781 179.777344 238.445312 177.507812 C 237.300781 176.199219 236.964844 175.054688 236.808594 173.796875 C 237.71875 173.050781 237.933594 171.816406 237.167969 170.792969 C 236.542969 169.957031 236.101562 169.066406 235.433594 168.25 C 233.335938 165.691406 229.730469 166.191406 227.78125 168.574219 C 221.453125 176.300781 231.347656 186.652344 237.675781 190.289062 C 246.738281 195.5 257.296875 198.519531 267.773438 198.722656 C 277.589844 198.910156 289.875 195.15625 290.53125 183.5 Z M 297.878906 147.648438 C 297.386719 147.59375 297.347656 147.210938 297.878906 147.648438 Z M 297.878906 147.648438 " fill-opacity="1" fill-rule="nonzero"/></g></g></g></g><g clip-path="url(#533864eb00)"><g clip-path="url(#1ca06831f6)"><g clip-path="url(#d251434cf4)"><g clip-path="url(#768af914b1)"><path fill="#009640" d="M 328.691406 263.136719 C 329.28125 262.457031 329.203125 261.441406 328.929688 260.667969 C 327.160156 255.714844 319.066406 257.988281 315.578125 258.964844 C 309.417969 260.6875 303.308594 262.679688 297.285156 264.851562 C 294.269531 259.820312 292.6875 253.921875 290.1875 248.589844 C 289.882812 247.9375 289.578125 247.257812 289.257812 246.5625 C 293.433594 247.269531 297.617188 247.917969 301.808594 248.5 C 309.441406 249.5625 319.449219 252.398438 326.59375 248.496094 C 328.503906 247.449219 328.75 245.089844 327.050781 243.714844 C 323.828125 241.105469 320.152344 240.402344 316.113281 239.859375 C 311.675781 239.261719 307.230469 238.769531 302.800781 238.121094 C 294.171875 236.859375 285.597656 235.308594 277.058594 233.570312 C 271.222656 232.382812 268.925781 242.257812 274.730469 243.808594 C 277.535156 244.558594 279.082031 249.886719 280.230469 252.308594 C 282.136719 256.324219 283.820312 260.433594 285.34375 264.609375 C 285.839844 265.960938 286.421875 267.40625 287.191406 268.695312 C 277.914062 272.492188 268.660156 277.167969 261.207031 283.53125 C 255.878906 286.945312 261.277344 295.867188 267.492188 291.796875 C 277.636719 285.15625 287.6875 279.570312 299.089844 275.292969 C 304.609375 273.21875 310.222656 271.433594 315.832031 269.625 C 320.257812 268.199219 325.523438 266.789062 328.691406 263.136719 Z M 328.691406 263.136719 " fill-opacity="1" fill-rule="nonzero"/></g></g></g></g><g clip-path="url(#b2df1ede92)"><g clip-path="url(#c95a49e96d)"><g clip-path="url(#53ef551e43)"><path fill="#e30613" d="M 130.609375 301.210938 C 130.914062 301.734375 131.164062 302.28125 131.359375 302.855469 C 131.554688 303.425781 131.691406 304.011719 131.773438 304.609375 C 131.851562 305.207031 131.871094 305.808594 131.835938 306.410156 C 131.796875 307.015625 131.699219 307.609375 131.546875 308.191406 C 131.390625 308.777344 131.179688 309.339844 130.914062 309.882812 C 130.648438 310.425781 130.332031 310.933594 129.964844 311.414062 C 129.597656 311.894531 129.1875 312.335938 128.734375 312.734375 C 128.28125 313.132812 127.792969 313.484375 127.269531 313.789062 C 126.75 314.089844 126.203125 314.339844 125.628906 314.535156 C 125.058594 314.730469 124.472656 314.871094 123.875 314.949219 C 123.273438 315.03125 122.675781 315.050781 122.070312 315.011719 C 121.46875 314.976562 120.875 314.878906 120.292969 314.722656 C 119.707031 314.570312 119.144531 314.359375 118.601562 314.09375 C 118.058594 313.824219 117.546875 313.507812 117.066406 313.144531 C 116.585938 312.777344 116.148438 312.367188 115.75 311.914062 C 115.347656 311.460938 115 310.972656 114.695312 310.449219 C 114.390625 309.925781 114.140625 309.378906 113.945312 308.808594 C 113.75 308.238281 113.613281 307.652344 113.53125 307.050781 C 113.453125 306.453125 113.433594 305.851562 113.46875 305.25 C 113.507812 304.648438 113.605469 304.054688 113.761719 303.46875 C 113.914062 302.886719 114.125 302.324219 114.390625 301.78125 C 114.65625 301.238281 114.972656 300.726562 115.339844 300.246094 C 115.707031 299.765625 116.117188 299.328125 116.570312 298.925781 C 117.023438 298.527344 117.511719 298.175781 118.035156 297.875 C 118.554688 297.570312 119.105469 297.320312 119.675781 297.125 C 120.246094 296.929688 120.832031 296.792969 121.429688 296.710938 C 122.03125 296.632812 122.628906 296.609375 123.234375 296.648438 C 123.835938 296.6875 124.429688 296.785156 125.011719 296.9375 C 125.597656 297.09375 126.160156 297.304688 126.703125 297.570312 C 127.246094 297.835938 127.757812 298.152344 128.238281 298.519531 C 128.71875 298.886719 129.15625 299.296875 129.554688 299.75 C 129.957031 300.203125 130.308594 300.691406 130.609375 301.210938 Z M 130.609375 301.210938 " fill-opacity="1" fill-rule="nonzero"/></g></g></g><g clip-path="url(#e1d19d1d47)"><g clip-path="url(#f2c9229e46)"><g clip-path="url(#594eed0389)"><path fill="#009fe3" d="M 184.414062 319.777344 C 184.71875 320.300781 184.964844 320.847656 185.160156 321.417969 C 185.355469 321.992188 185.496094 322.574219 185.574219 323.175781 C 185.65625 323.773438 185.675781 324.375 185.636719 324.976562 C 185.601562 325.578125 185.503906 326.171875 185.347656 326.757812 C 185.195312 327.339844 184.984375 327.90625 184.71875 328.445312 C 184.449219 328.988281 184.132812 329.5 183.769531 329.980469 C 183.402344 330.460938 182.992188 330.902344 182.539062 331.300781 C 182.085938 331.699219 181.597656 332.050781 181.074219 332.355469 C 180.550781 332.65625 180.003906 332.90625 179.433594 333.101562 C 178.863281 333.296875 178.277344 333.433594 177.675781 333.515625 C 177.078125 333.59375 176.476562 333.617188 175.875 333.578125 C 175.273438 333.539062 174.679688 333.445312 174.09375 333.289062 C 173.511719 333.132812 172.949219 332.921875 172.40625 332.65625 C 171.863281 332.390625 171.351562 332.074219 170.871094 331.707031 C 170.390625 331.339844 169.953125 330.929688 169.550781 330.476562 C 169.152344 330.023438 168.800781 329.535156 168.5 329.015625 C 168.195312 328.492188 167.945312 327.945312 167.75 327.375 C 167.554688 326.800781 167.417969 326.214844 167.335938 325.617188 C 167.257812 325.019531 167.234375 324.417969 167.273438 323.816406 C 167.3125 323.210938 167.410156 322.617188 167.5625 322.035156 C 167.71875 321.449219 167.929688 320.886719 168.195312 320.34375 C 168.460938 319.804688 168.777344 319.292969 169.144531 318.8125 C 169.511719 318.332031 169.921875 317.890625 170.375 317.492188 C 170.828125 317.09375 171.316406 316.742188 171.835938 316.4375 C 172.359375 316.136719 172.90625 315.886719 173.480469 315.691406 C 174.050781 315.496094 174.636719 315.355469 175.234375 315.277344 C 175.832031 315.195312 176.433594 315.175781 177.035156 315.214844 C 177.640625 315.25 178.234375 315.347656 178.816406 315.503906 C 179.402344 315.660156 179.964844 315.867188 180.507812 316.136719 C 181.050781 316.402344 181.558594 316.71875 182.039062 317.085938 C 182.519531 317.449219 182.960938 317.859375 183.359375 318.3125 C 183.757812 318.765625 184.109375 319.253906 184.414062 319.777344 Z M 184.414062 319.777344 " fill-opacity="1" fill-rule="nonzero"/></g></g></g><g clip-path="url(#cc99490ad3)"><g clip-path="url(#6a7ec5f34f)"><g clip-path="url(#6fd8757ae1)"><path fill="#f39200" d="M 239.359375 309.75 C 239.664062 310.273438 239.914062 310.820312 240.109375 311.394531 C 240.304688 311.964844 240.441406 312.550781 240.523438 313.148438 C 240.601562 313.746094 240.625 314.347656 240.585938 314.949219 C 240.546875 315.554688 240.449219 316.148438 240.296875 316.730469 C 240.140625 317.316406 239.929688 317.878906 239.664062 318.421875 C 239.398438 318.964844 239.082031 319.472656 238.714844 319.953125 C 238.347656 320.433594 237.9375 320.875 237.484375 321.273438 C 237.03125 321.671875 236.542969 322.023438 236.019531 322.328125 C 235.5 322.628906 234.953125 322.878906 234.378906 323.074219 C 233.808594 323.269531 233.222656 323.410156 232.625 323.488281 C 232.027344 323.570312 231.425781 323.589844 230.820312 323.550781 C 230.21875 323.515625 229.625 323.417969 229.042969 323.261719 C 228.457031 323.105469 227.894531 322.898438 227.351562 322.632812 C 226.808594 322.363281 226.296875 322.046875 225.816406 321.683594 C 225.339844 321.316406 224.898438 320.90625 224.5 320.453125 C 224.101562 320 223.75 319.511719 223.445312 318.988281 C 223.140625 318.464844 222.894531 317.917969 222.695312 317.347656 C 222.5 316.777344 222.363281 316.191406 222.285156 315.589844 C 222.203125 314.992188 222.183594 314.390625 222.21875 313.789062 C 222.257812 313.1875 222.355469 312.59375 222.511719 312.007812 C 222.664062 311.425781 222.875 310.863281 223.140625 310.320312 C 223.40625 309.777344 223.722656 309.265625 224.089844 308.785156 C 224.457031 308.304688 224.867188 307.867188 225.320312 307.464844 C 225.773438 307.066406 226.261719 306.714844 226.785156 306.414062 C 227.308594 306.109375 227.855469 305.859375 228.425781 305.664062 C 228.996094 305.46875 229.582031 305.332031 230.179688 305.25 C 230.78125 305.171875 231.382812 305.148438 231.984375 305.1875 C 232.585938 305.226562 233.179688 305.324219 233.765625 305.476562 C 234.347656 305.632812 234.910156 305.84375 235.453125 306.109375 C 235.996094 306.375 236.507812 306.691406 236.988281 307.058594 C 237.46875 307.425781 237.90625 307.835938 238.304688 308.289062 C 238.707031 308.742188 239.058594 309.230469 239.359375 309.75 Z M 239.359375 309.75 " fill-opacity="1" fill-rule="nonzero"/></g></g></g><g clip-path="url(#66af467c83)"><g clip-path="url(#388e0ab81a)"><g clip-path="url(#351de4b6cd)"><path fill="#009640" d="M 46.820312 211.898438 C 44.996094 214.148438 43.234375 218.863281 41.796875 222.722656 C 42.660156 223.046875 47.832031 221.066406 51.566406 222.949219 C 64.921875 229.398438 121.464844 262.707031 125.46875 265.175781 C 124.726562 256.597656 125.828125 249.683594 118.460938 243.027344 C 107.839844 233.203125 61.695312 207.683594 56.601562 202.851562 C 52.070312 203.113281 49.332031 206.488281 46.820312 211.898438 Z M 46.820312 211.898438 " fill-opacity="1" fill-rule="nonzero"/></g></g></g><g clip-path="url(#c60f5513ab)"><g clip-path="url(#930ae08d33)"><g clip-path="url(#c940048ff3)"><path fill="#009640" d="M 84.042969 149.113281 C 82.632812 147.609375 81.703125 144.820312 80.996094 144.070312 C 77.875 145.835938 77.222656 156.824219 78.265625 160.632812 C 78.765625 163.261719 82.464844 170.503906 84.917969 175.8125 C 77.3125 176.394531 73.183594 182.179688 73.425781 188.128906 C 72.449219 186.789062 71.308594 185.875 70.765625 184.695312 C 67.371094 185.871094 64.492188 193.585938 62.84375 199.320312 C 63.980469 200.234375 65.375 197.824219 66.078125 198.574219 C 69.058594 201.152344 70.902344 202.816406 73.609375 204.800781 L 77.199219 211.023438 C 77.199219 211.023438 76.8125 209.417969 76.585938 207.378906 C 99.332031 225.632812 107.738281 222.910156 111.566406 221.894531 C 117.601562 220.242188 120.433594 213.972656 121.007812 209.792969 C 122.460938 196.660156 113.027344 186.300781 99.394531 179.261719 C 94.367188 176.894531 90.3125 175.871094 86.535156 175.4375 C 85.332031 172.058594 82.449219 166.589844 82.382812 164.121094 C 104.648438 183.664062 117.8125 182.714844 124.488281 179.34375 C 128.636719 177.472656 133.996094 169.707031 132.550781 160.378906 C 130.449219 148.847656 120.917969 141.386719 110.859375 136.65625 C 87.554688 126.496094 82.40625 145.574219 84.042969 149.113281 Z M 106.148438 204.734375 C 101.332031 213.679688 80.363281 194.625 77.703125 191.191406 C 76.996094 190.4375 77.394531 182.773438 84.25 182.886719 C 95.3125 183.597656 110.964844 195.789062 106.148438 204.734375 Z M 119.292969 164.222656 C 114.15625 174.027344 89.570312 154.105469 86.476562 150.511719 C 85.773438 149.757812 86.488281 141.234375 93.777344 141.511719 C 106.296875 142.277344 123.949219 155.703125 119.292969 164.222656 Z M 119.292969 164.222656 " fill-opacity="1" fill-rule="nonzero"/></g></g></g></svg>